<svg width="12" height="12" viewBox="0 0 12 12" fill="none" xmlns="http://www.w3.org/2000/svg">
<path d="M7.6 0H4.4C4.18783 0 3.98434 0.0903058 3.83431 0.251051C3.68429 0.411797 3.6 0.629814 3.6 0.857143V11.8929C3.6 11.9213 3.61054 11.9485 3.62929 11.9686C3.64804 11.9887 3.67348 12 3.7 12H8.3C8.32652 12 8.35196 11.9887 8.37071 11.9686C8.38946 11.9485 8.4 11.9213 8.4 11.8929V0.857143C8.4 0.629814 8.31571 0.411797 8.16569 0.251051C8.01566 0.0903058 7.81217 0 7.6 0ZM11.2 4.28571H9.4C9.34696 4.28571 9.29609 4.30829 9.25858 4.34848C9.22107 4.38866 9.2 4.44317 9.2 4.5V11.7857C9.2 11.8425 9.22107 11.8971 9.25858 11.9372C9.29609 11.9774 9.34696 12 9.4 12H11.4C11.5591 12 11.7117 11.9323 11.8243 11.8117C11.9368 11.6912 12 11.5276 12 11.3571V5.14286C12 4.91553 11.9157 4.69751 11.7657 4.53677C11.6157 4.37602 11.4122 4.28571 11.2 4.28571ZM0.8 2.57143C0.587827 2.57143 0.384344 2.66173 0.234315 2.82248C0.0842855 2.98323 0 3.20124 0 3.42857V11.3571C0 11.5276 0.0632141 11.6912 0.175736 11.8117C0.288258 11.9323 0.44087 12 0.6 12H2.6C2.65304 12 2.70391 11.9774 2.74142 11.9372C2.77893 11.8971 2.8 11.8425 2.8 11.7857V2.78571C2.8 2.72888 2.77893 2.67438 2.74142 2.63419C2.70391 2.594 2.65304 2.57143 2.6 2.57143H0.8Z" fill="white"/>
</svg>
