<svg width="32" height="28" viewBox="0 0 32 28" fill="none" xmlns="http://www.w3.org/2000/svg">
<path d="M26.9045 25.7349C26.9045 26.2113 26.7196 26.6682 26.3906 27.0051C26.0615 27.342 25.6152 27.5312 25.1498 27.5312H2.9244C2.14999 27.5273 1.40838 27.2106 0.860783 26.65C0.313183 26.0894 0.00384332 25.3302 0 24.5374V6.57453C0 6.09812 0.184863 5.64123 0.513922 5.30436C0.842981 4.96749 1.28928 4.77824 1.75464 4.77824C2.22 4.77824 2.6663 4.96749 2.99536 5.30436C3.32442 5.64123 3.50928 6.09812 3.50928 6.57453V23.9386H25.1498C25.6152 23.9386 26.0615 24.1279 26.3906 24.4648C26.7196 24.8016 26.9045 25.2585 26.9045 25.7349ZM31.1887 10.1072L31.2326 10.0324L31.2911 9.9725L31.3349 9.88269L31.3788 9.82281L31.4227 9.733C31.4227 9.70306 31.4373 9.68809 31.4519 9.65815C31.4665 9.62822 31.4665 9.59828 31.4812 9.56834C31.4958 9.5384 31.4958 9.52343 31.5104 9.49349C31.525 9.46356 31.525 9.43362 31.525 9.40368C31.525 9.37374 31.5397 9.34381 31.5543 9.31387C31.5521 9.28317 31.5572 9.25238 31.5689 9.22405V9.14921C31.5836 9.02993 31.5836 8.90923 31.5689 8.78995V8.71511C31.5572 8.68677 31.5521 8.65599 31.5543 8.62529C31.5397 8.59535 31.5397 8.56541 31.525 8.53548C31.5104 8.50554 31.5104 8.4756 31.5104 8.44566C31.5104 8.41572 31.4958 8.38579 31.4812 8.37082C31.4665 8.35585 31.4665 8.31094 31.4519 8.281C31.4373 8.25106 31.4227 8.23609 31.4227 8.20616L31.3788 8.11634L31.3349 8.05647L31.2911 7.96665L31.2326 7.90678L31.1887 7.83193L31.0864 7.71218H31.0718L24.0532 0.527032C23.7236 0.189579 23.2765 -5.02845e-09 22.8103 0C22.3442 5.02845e-09 21.8971 0.189579 21.5675 0.527032C21.2378 0.864486 21.0526 1.32217 21.0526 1.7994C21.0526 2.27663 21.2378 2.73432 21.5675 3.07177L25.5885 7.17329H21.6406C18.1389 7.17231 14.7362 8.36286 11.9675 10.5577C9.19889 12.7526 7.22137 15.8272 6.34595 19.2982C6.23035 19.7587 6.2978 20.2473 6.53351 20.657C6.76923 21.0667 7.15398 21.364 7.60344 21.4837C7.74598 21.5257 7.8938 21.5458 8.0421 21.5436C8.43126 21.5455 8.80984 21.4139 9.11732 21.1697C9.42479 20.9255 9.64342 20.5828 9.73825 20.1964C10.4194 17.4956 11.9585 15.1034 14.1132 13.3962C16.2679 11.6889 18.9159 10.7636 21.6406 10.7659H25.5885L21.5675 14.8824C21.4039 15.0492 21.2741 15.2475 21.1855 15.4659C21.097 15.6842 21.0514 15.9183 21.0514 16.1547C21.0514 16.3911 21.097 16.6252 21.1855 16.8436C21.2741 17.0619 21.4039 17.2602 21.5675 17.4271C21.8986 17.7617 22.3451 17.9493 22.8103 17.9493C23.2756 17.9493 23.7221 17.7617 24.0532 17.4271L31.0718 10.2419H31.0864L31.1887 10.1072Z" fill="white"/>
</svg>
