<svg width="12" height="12" viewBox="0 0 12 12" fill="none" xmlns="http://www.w3.org/2000/svg">
<g opacity="0.7">
<path d="M12 2.5714C12 2.11674 11.8194 1.6807 11.4979 1.35921C11.1764 1.03772 10.7404 0.857107 10.2857 0.857107H9.85714V0.440587C9.85714 0.209962 9.67982 0.0120145 9.4492 0.000496603C9.39125 -0.00229534 9.33334 0.00670665 9.27897 0.0269572C9.22461 0.0472077 9.17492 0.0782851 9.13292 0.118306C9.09092 0.158327 9.05749 0.206459 9.03464 0.259784C9.01179 0.31311 9.00001 0.370519 9 0.428534V0.857107H3V0.440587C3 0.209962 2.82268 0.0120145 2.59205 0.000496603C2.53411 -0.00229534 2.4762 0.00670665 2.42183 0.0269572C2.36747 0.0472077 2.31778 0.0782851 2.27578 0.118306C2.23378 0.158327 2.20034 0.206459 2.17749 0.259784C2.15465 0.31311 2.14286 0.370519 2.14286 0.428534V0.857107H1.71429C1.25963 0.857107 0.823594 1.03772 0.502103 1.35921C0.180612 1.6807 0 2.11674 0 2.5714V2.89283C0 2.92124 0.0112883 2.9485 0.0313814 2.96859C0.0514746 2.98868 0.0787268 2.99997 0.107143 2.99997H11.8929C11.9213 2.99997 11.9485 2.98868 11.9686 2.96859C11.9887 2.9485 12 2.92124 12 2.89283V2.5714ZM0 10.2857C0 10.7404 0.180612 11.1764 0.502103 11.4979C0.823594 11.8194 1.25963 12 1.71429 12H10.2857C10.7404 12 11.1764 11.8194 11.4979 11.4979C11.8194 11.1764 12 10.7404 12 10.2857V3.93747C12 3.91616 11.9915 3.89572 11.9765 3.88065C11.9614 3.86558 11.941 3.85712 11.9196 3.85712H0.0803571C0.0590451 3.85712 0.038606 3.86558 0.0235361 3.88065C0.00846622 3.89572 0 3.91616 0 3.93747V10.2857ZM9.21429 4.71426C9.34143 4.71426 9.46572 4.75197 9.57144 4.8226C9.67716 4.89324 9.75955 4.99364 9.80821 5.11111C9.85686 5.22858 9.8696 5.35783 9.84479 5.48254C9.81999 5.60724 9.75876 5.72179 9.66885 5.81169C9.57895 5.9016 9.4644 5.96282 9.3397 5.98763C9.215 6.01243 9.08574 5.9997 8.96828 5.95105C8.85081 5.90239 8.75041 5.81999 8.67977 5.71427C8.60913 5.60856 8.57143 5.48427 8.57143 5.35712C8.57143 5.18662 8.63916 5.02311 8.75972 4.90255C8.88028 4.78199 9.04379 4.71426 9.21429 4.71426ZM9.21429 6.85713C9.34143 6.85713 9.46572 6.89483 9.57144 6.96547C9.67716 7.03611 9.75955 7.13651 9.80821 7.25397C9.85686 7.37144 9.8696 7.5007 9.84479 7.6254C9.81999 7.7501 9.75876 7.86465 9.66885 7.95456C9.57895 8.04446 9.4644 8.10569 9.3397 8.13049C9.215 8.1553 9.08574 8.14257 8.96828 8.09391C8.85081 8.04525 8.75041 7.96286 8.67977 7.85714C8.60913 7.75142 8.57143 7.62713 8.57143 7.49999C8.57143 7.32949 8.63916 7.16598 8.75972 7.04542C8.88028 6.92486 9.04379 6.85713 9.21429 6.85713ZM7.07143 4.71426C7.19857 4.71426 7.32286 4.75197 7.42858 4.8226C7.5343 4.89324 7.61669 4.99364 7.66535 5.11111C7.71401 5.22858 7.72674 5.35783 7.70193 5.48254C7.67713 5.60724 7.6159 5.72179 7.526 5.81169C7.43609 5.9016 7.32155 5.96282 7.19684 5.98763C7.07214 6.01243 6.94288 5.9997 6.82542 5.95105C6.70795 5.90239 6.60755 5.81999 6.53691 5.71427C6.46627 5.60856 6.42857 5.48427 6.42857 5.35712C6.42857 5.18662 6.4963 5.02311 6.61686 4.90255C6.73742 4.78199 6.90093 4.71426 7.07143 4.71426ZM7.07143 6.85713C7.19857 6.85713 7.32286 6.89483 7.42858 6.96547C7.5343 7.03611 7.61669 7.13651 7.66535 7.25397C7.71401 7.37144 7.72674 7.5007 7.70193 7.6254C7.67713 7.7501 7.6159 7.86465 7.526 7.95456C7.43609 8.04446 7.32155 8.10569 7.19684 8.13049C7.07214 8.1553 6.94288 8.14257 6.82542 8.09391C6.70795 8.04525 6.60755 7.96286 6.53691 7.85714C6.46627 7.75142 6.42857 7.62713 6.42857 7.49999C6.42857 7.32949 6.4963 7.16598 6.61686 7.04542C6.73742 6.92486 6.90093 6.85713 7.07143 6.85713ZM7.07143 8.99999C7.19857 8.99999 7.32286 9.03769 7.42858 9.10833C7.5343 9.17897 7.61669 9.27937 7.66535 9.39684C7.71401 9.51431 7.72674 9.64356 7.70193 9.76826C7.67713 9.89297 7.6159 10.0075 7.526 10.0974C7.43609 10.1873 7.32155 10.2486 7.19684 10.2734C7.07214 10.2982 6.94288 10.2854 6.82542 10.2368C6.70795 10.1881 6.60755 10.1057 6.53691 10C6.46627 9.89429 6.42857 9.76999 6.42857 9.64285C6.42857 9.47235 6.4963 9.30884 6.61686 9.18828C6.73742 9.06772 6.90093 8.99999 7.07143 8.99999ZM4.92857 6.85713C5.05572 6.85713 5.18001 6.89483 5.28572 6.96547C5.39144 7.03611 5.47384 7.13651 5.52249 7.25397C5.57115 7.37144 5.58388 7.5007 5.55908 7.6254C5.53427 7.7501 5.47305 7.86465 5.38314 7.95456C5.29323 8.04446 5.17869 8.10569 5.05399 8.13049C4.92928 8.1553 4.80003 8.14257 4.68256 8.09391C4.56509 8.04525 4.46469 7.96286 4.39406 7.85714C4.32342 7.75142 4.28571 7.62713 4.28571 7.49999C4.28571 7.32949 4.35344 7.16598 4.474 7.04542C4.59456 6.92486 4.75808 6.85713 4.92857 6.85713ZM4.92857 8.99999C5.05572 8.99999 5.18001 9.03769 5.28572 9.10833C5.39144 9.17897 5.47384 9.27937 5.52249 9.39684C5.57115 9.51431 5.58388 9.64356 5.55908 9.76826C5.53427 9.89297 5.47305 10.0075 5.38314 10.0974C5.29323 10.1873 5.17869 10.2486 5.05399 10.2734C4.92928 10.2982 4.80003 10.2854 4.68256 10.2368C4.56509 10.1881 4.46469 10.1057 4.39406 10C4.32342 9.89429 4.28571 9.76999 4.28571 9.64285C4.28571 9.47235 4.35344 9.30884 4.474 9.18828C4.59456 9.06772 4.75808 8.99999 4.92857 8.99999ZM2.78571 6.85713C2.91286 6.85713 3.03715 6.89483 3.14287 6.96547C3.24858 7.03611 3.33098 7.13651 3.37964 7.25397C3.42829 7.37144 3.44102 7.5007 3.41622 7.6254C3.39141 7.7501 3.33019 7.86465 3.24028 7.95456C3.15038 8.04446 3.03583 8.10569 2.91113 8.13049C2.78643 8.1553 2.65717 8.14257 2.5397 8.09391C2.42224 8.04525 2.32184 7.96286 2.2512 7.85714C2.18056 7.75142 2.14286 7.62713 2.14286 7.49999C2.14286 7.32949 2.21059 7.16598 2.33115 7.04542C2.4517 6.92486 2.61522 6.85713 2.78571 6.85713ZM2.78571 8.99999C2.91286 8.99999 3.03715 9.03769 3.14287 9.10833C3.24858 9.17897 3.33098 9.27937 3.37964 9.39684C3.42829 9.51431 3.44102 9.64356 3.41622 9.76826C3.39141 9.89297 3.33019 10.0075 3.24028 10.0974C3.15038 10.1873 3.03583 10.2486 2.91113 10.2734C2.78643 10.2982 2.65717 10.2854 2.5397 10.2368C2.42224 10.1881 2.32184 10.1057 2.2512 10C2.18056 9.89429 2.14286 9.76999 2.14286 9.64285C2.14286 9.47235 2.21059 9.30884 2.33115 9.18828C2.4517 9.06772 2.61522 8.99999 2.78571 8.99999Z" fill="white"/>
</g>
</svg>
