<svg width="23" height="22" viewBox="0 0 23 22" fill="none" xmlns="http://www.w3.org/2000/svg">
<path d="M20.876 11.2139C20.876 10.4225 20.8104 9.84497 20.6686 9.24609H11.4474V12.818H16.8601C16.751 13.7057 16.1617 15.0425 14.8521 15.9408L14.8338 16.0603L17.7494 18.2738L17.9514 18.2936C19.8065 16.6145 20.876 14.1441 20.876 11.2139Z" fill="#4285F4"/>
<path d="M11.4468 20.6248C14.0985 20.6248 16.3247 19.7692 17.9507 18.2934L14.8515 15.9405C14.0222 16.5073 12.9091 16.903 11.4468 16.903C8.8496 16.903 6.64526 15.224 5.85947 12.9033L5.74429 12.9129L2.71264 15.2122L2.67299 15.3202C4.28805 18.4644 7.6055 20.6248 11.4468 20.6248Z" fill="#34A853"/>
<path d="M5.86005 12.9034C5.65271 12.3045 5.53272 11.6628 5.53272 10.9997C5.53272 10.3366 5.65271 9.695 5.84914 9.09612L5.84365 8.96857L2.77399 6.63232L2.67356 6.67914C2.00791 7.98388 1.62597 9.44905 1.62597 10.9997C1.62597 12.5504 2.00791 14.0155 2.67356 15.3203L5.86005 12.9034Z" fill="#FBBC05"/>
<path d="M11.4468 5.09664C13.2911 5.09664 14.5351 5.87733 15.2444 6.52974L18.0163 3.8775C16.3139 2.32681 14.0986 1.375 11.4468 1.375C7.60553 1.375 4.28806 3.53526 2.67299 6.6794L5.84858 9.09638C6.64528 6.77569 8.84963 5.09664 11.4468 5.09664Z" fill="#EB4335"/>
</svg>
