<svg width="14" height="14" viewBox="0 0 14 14" fill="none" xmlns="http://www.w3.org/2000/svg">
<g clip-path="url(#clip0_7_2622)">
<path d="M7.38881 3.88894C8.24792 3.88894 8.94436 3.1925 8.94436 2.33339C8.94436 1.47428 8.24792 0.777832 7.38881 0.777832C6.5297 0.777832 5.83325 1.47428 5.83325 2.33339C5.83325 3.1925 6.5297 3.88894 7.38881 3.88894Z" fill="#BBBBC6"/>
<path d="M9.80282 10.2006C9.75985 10.1717 9.71153 10.1516 9.66071 10.1416C9.60989 10.1317 9.55759 10.1319 9.50688 10.1424C9.45616 10.1529 9.40805 10.1735 9.36538 10.2028C9.32271 10.2322 9.28633 10.2697 9.25838 10.3133C8.88243 10.8701 8.42189 11.3648 7.89338 11.7795C7.76504 11.8767 7.28671 12.2461 7.08449 12.1683C6.94449 12.1256 7.02615 11.8495 7.05338 11.7328L7.25949 11.1222C7.34504 10.8733 8.83449 6.45557 8.99782 5.95001C9.23893 5.21113 9.13393 4.4839 8.03338 4.6589C7.73393 4.69001 4.69671 5.08279 4.64226 5.08668C4.59119 5.09 4.54128 5.10335 4.49537 5.12596C4.44945 5.14857 4.40845 5.18 4.37468 5.21846C4.34092 5.25692 4.31506 5.30165 4.29858 5.3501C4.2821 5.39856 4.27533 5.44978 4.27865 5.50085C4.28197 5.55192 4.29532 5.60183 4.31793 5.64775C4.34054 5.69366 4.37197 5.73467 4.41043 5.76843C4.44889 5.80219 4.49362 5.82805 4.54207 5.84453C4.59053 5.86101 4.64175 5.86778 4.69282 5.86446C4.69282 5.86446 5.85949 5.71279 5.98782 5.70113C6.05355 5.69471 6.11974 5.70745 6.17839 5.73781C6.23705 5.76817 6.28566 5.81486 6.31837 5.87224C6.38884 6.09006 6.37919 6.3259 6.29115 6.53724C6.19004 6.92613 4.59171 11.4295 4.54115 11.69C4.48693 11.9081 4.50198 12.1376 4.58422 12.3467C4.66647 12.5557 4.81181 12.734 5.00004 12.8567C5.35335 13.0922 5.77403 13.2055 6.19782 13.1795C6.60987 13.1744 7.01738 13.0927 7.39949 12.9383C8.36782 12.5495 9.37893 11.515 9.91171 10.7022C9.95759 10.6197 9.97184 10.5232 9.9518 10.4309C9.93176 10.3386 9.8788 10.2567 9.80282 10.2006Z" fill="#BBBBC6"/>
</g>
<defs>
<clipPath id="clip0_7_2622">
<rect width="14" height="14" fill="white"/>
</clipPath>
</defs>
</svg>
