<svg width="24" height="23" viewBox="0 0 24 23" fill="none" xmlns="http://www.w3.org/2000/svg">
<path d="M11.5781 2.073C14.6481 2.073 15.0131 2.084 16.2261 2.14C19.3421 2.282 20.7981 3.76 20.9401 6.854C20.9961 8.066 21.0061 8.43 21.0061 11.501C21.0061 14.572 20.9951 14.936 20.9401 16.148C20.7971 19.238 19.3451 20.72 16.2261 20.862C15.0131 20.918 14.6501 20.929 11.5781 20.929C8.50813 20.929 8.14313 20.918 6.93113 20.862C3.80713 20.719 2.35912 19.234 2.21712 16.147C2.16112 14.935 2.15013 14.572 2.15013 11.5C2.15013 8.43 2.16212 8.066 2.21712 6.853C2.36013 3.761 3.81213 2.281 6.93113 2.139C8.14412 2.084 8.50813 2.073 11.5781 2.073ZM11.5781 0C8.45512 0 8.06413 0.013 6.83813 0.069C2.66013 0.261 0.339125 2.578 0.148125 6.759C0.091125 7.985 0.078125 8.376 0.078125 11.5C0.078125 14.623 0.091125 15.015 0.147125 16.242C0.339125 20.418 2.65612 22.739 6.83712 22.931C8.06413 22.987 8.45512 23 11.5781 23C14.7011 23 15.0931 22.987 16.3201 22.931C20.4921 22.739 22.8201 20.422 23.0081 16.241C23.0651 15.015 23.0781 14.623 23.0781 11.5C23.0781 8.377 23.0651 7.986 23.0091 6.76C22.8211 2.587 20.5011 0.262 16.3211 0.07C15.0931 0.013 14.7011 0 11.5781 0ZM11.5781 5.595C10.8027 5.595 10.0348 5.74774 9.31838 6.04449C8.60195 6.34125 7.95099 6.7762 7.40266 7.32453C6.85433 7.87286 6.41937 8.52383 6.12262 9.24025C5.82586 9.95668 5.67312 10.7245 5.67312 11.5C5.67312 12.2755 5.82586 13.0433 6.12262 13.7597C6.41937 14.4762 6.85433 15.1271 7.40266 15.6755C7.95099 16.2238 8.60195 16.6588 9.31838 16.9555C10.0348 17.2523 10.8027 17.405 11.5781 17.405C13.1442 17.405 14.6462 16.7829 15.7536 15.6755C16.861 14.5681 17.4831 13.0661 17.4831 11.5C17.4831 9.9339 16.861 8.43194 15.7536 7.32453C14.6462 6.21713 13.1442 5.595 11.5781 5.595ZM11.5781 15.333C11.0696 15.3412 10.5646 15.2482 10.0924 15.0592C9.62022 14.8703 9.19036 14.5893 8.82785 14.2326C8.46535 13.8759 8.17745 13.4507 7.98094 12.9816C7.78442 12.5125 7.68322 12.0091 7.68322 11.5005C7.68322 10.9919 7.78442 10.4885 7.98094 10.0194C8.17745 9.55032 8.46535 9.12505 8.82785 8.76836C9.19036 8.41166 9.62022 8.13067 10.0924 7.94176C10.5646 7.75285 11.0696 7.65979 11.5781 7.668C12.5838 7.68425 13.5429 8.09517 14.2484 8.81214C14.9538 9.5291 15.3492 10.4946 15.3492 11.5005C15.3492 12.5064 14.9538 13.4719 14.2484 14.1889C13.5429 14.9058 12.5838 15.3168 11.5781 15.333ZM17.7181 3.982C17.5368 3.98187 17.3573 4.01745 17.1898 4.0867C17.0222 4.15596 16.87 4.25753 16.7417 4.38563C16.6134 4.51373 16.5116 4.66584 16.4421 4.83328C16.3726 5.00072 16.3368 5.18021 16.3366 5.3615C16.3365 5.54279 16.3721 5.72233 16.4413 5.88987C16.5106 6.05741 16.6122 6.20967 16.7403 6.33795C16.8684 6.46624 17.0205 6.56804 17.1879 6.63753C17.3553 6.70703 17.5348 6.74287 17.7161 6.743C18.0823 6.74313 18.4334 6.59781 18.6924 6.33901C18.9514 6.08021 19.097 5.72913 19.0971 5.363C19.0973 4.99687 18.9519 4.64568 18.6931 4.38669C18.4343 4.1277 18.0833 3.98213 17.7171 3.982H17.7181Z" fill="white"/>
</svg>
