<svg width="31" height="31" viewBox="0 0 31 31" fill="none" xmlns="http://www.w3.org/2000/svg">
<path d="M15.7478 0.231445L18.8309 2.70303L22.7094 1.94734L24.2908 5.56861L28.0763 6.70193L27.7936 10.6433L30.6188 13.406L28.5368 16.7645L29.7545 20.5237L26.3503 22.53L25.6815 26.4245L21.7348 26.619L19.3328 29.7566L15.7478 28.0946L12.1628 29.7566L9.76077 26.619L5.81407 26.4245L5.1453 22.53L1.74105 20.5237L2.95874 16.7645L0.876801 13.406L3.70199 10.6433L3.41932 6.70193L7.20479 5.56861L8.78614 1.94734L12.6647 2.70303L15.7478 0.231445Z" fill="#4356EA"/>
<mask id="path-2-inside-1_217_7408" fill="white">
<path d="M22.5578 12.1283L13.2195 20.6588L8.93945 16.749L10.0367 15.7467L13.2195 18.6471L21.4606 11.126L22.5578 12.1283Z"/>
</mask>
<path d="M22.5578 12.1283L13.2195 20.6588L8.93945 16.749L10.0367 15.7467L13.2195 18.6471L21.4606 11.126L22.5578 12.1283Z" fill="white"/>
<path d="M22.5578 12.1283L24.7424 14.5197L27.3602 12.1283L24.7424 9.73693L22.5578 12.1283ZM13.2195 20.6588L11.035 23.0502L13.2195 25.0458L15.404 23.0502L13.2195 20.6588ZM8.93945 16.749L6.75493 14.3576L4.13709 16.749L6.75493 19.1404L8.93945 16.749ZM10.0367 15.7467L12.2183 13.3526L10.034 11.3622L7.85218 13.3553L10.0367 15.7467ZM13.2195 18.6471L11.0379 21.0411L13.2212 23.0306L15.4029 21.0395L13.2195 18.6471ZM21.4606 11.126L23.6451 8.73459L21.4616 6.73997L19.2772 8.73356L21.4606 11.126ZM20.3733 9.73693L11.035 18.2675L15.404 23.0502L24.7424 14.5197L20.3733 9.73693ZM15.404 18.2675L11.124 14.3576L6.75493 19.1404L11.035 23.0502L15.404 18.2675ZM11.124 19.1404L12.2212 18.1381L7.85218 13.3553L6.75493 14.3576L11.124 19.1404ZM7.85509 18.1407L11.0379 21.0411L15.4011 16.253L12.2183 13.3526L7.85509 18.1407ZM15.4029 21.0395L23.644 13.5184L19.2772 8.73356L11.0361 16.2546L15.4029 21.0395ZM19.276 13.5174L20.3733 14.5197L24.7424 9.73693L23.6451 8.73459L19.276 13.5174Z" fill="white" mask="url(#path-2-inside-1_217_7408)"/>
</svg>
