<svg width="12" height="12" viewBox="0 0 12 12" fill="none" xmlns="http://www.w3.org/2000/svg">
<path d="M11.7426 7.14783L11.73 7.13791L10.8846 6.49226C10.8311 6.45102 10.7884 6.39799 10.76 6.33754C10.7316 6.27709 10.7183 6.21094 10.7212 6.14452V5.84296C10.7186 5.77696 10.732 5.71129 10.7604 5.65134C10.7889 5.59138 10.8315 5.53886 10.8849 5.49809L11.73 4.85217L11.7426 4.84226C11.8729 4.73652 11.9604 4.58908 11.9893 4.4263C12.0183 4.26352 11.9868 4.09601 11.9006 3.95374L10.7566 2.02591C10.7553 2.02409 10.7541 2.02217 10.7531 2.02017C10.6664 1.87987 10.532 1.77356 10.3732 1.71971C10.2145 1.66586 10.0413 1.66787 9.88392 1.72539L9.87454 1.72878L8.88079 2.11826C8.81807 2.14296 8.75022 2.15279 8.68283 2.14694C8.61545 2.14109 8.55045 2.11972 8.49321 2.08461C8.40535 2.0307 8.31606 1.97974 8.22535 1.93174C8.16653 1.90068 8.11604 1.85659 8.07793 1.80303C8.03982 1.74947 8.01518 1.68793 8.00597 1.62339L7.85624 0.590609L7.85303 0.571826C7.82043 0.41186 7.73229 0.267697 7.60342 0.163564C7.47455 0.05943 7.3128 0.0016735 7.14535 0H4.85464C4.68484 0.000529181 4.52067 0.0594043 4.39107 0.166253C4.26146 0.273102 4.17474 0.421069 4.14616 0.584087L4.14375 0.598696L3.99456 1.63357C3.9854 1.69792 3.96095 1.75931 3.92315 1.81284C3.88534 1.86637 3.83522 1.91057 3.77679 1.94191C3.68581 1.98964 3.59648 2.04027 3.50893 2.09374C3.45179 2.12864 3.38696 2.14984 3.31977 2.1556C3.25258 2.16136 3.18494 2.15151 3.12242 2.12687L2.12786 1.73557L2.11849 1.73191C1.96085 1.67433 1.78746 1.6724 1.62851 1.72645C1.46955 1.7805 1.33508 1.88711 1.24849 2.02774L1.24501 2.03348L0.0993878 3.96261C0.0130388 4.10503 -0.0184771 4.27272 0.0104758 4.43569C0.0394286 4.59866 0.126962 4.74629 0.257423 4.85217L0.270012 4.86209L1.11537 5.50774C1.1689 5.54898 1.21162 5.60201 1.24003 5.66246C1.26843 5.72291 1.28171 5.78906 1.27876 5.85548V6.15704C1.28144 6.22304 1.26801 6.28871 1.23955 6.34866C1.2111 6.40862 1.16845 6.46114 1.1151 6.50191L0.270012 7.14783L0.257423 7.15774C0.127091 7.26348 0.0396289 7.41092 0.0106761 7.5737C-0.0182766 7.73648 0.0131683 7.90399 0.0993878 8.04626L1.2434 9.97409C1.24472 9.97591 1.24588 9.97783 1.24688 9.97983C1.33357 10.1201 1.46797 10.2264 1.62675 10.2803C1.78553 10.3341 1.95866 10.3321 2.11608 10.2746L2.12545 10.2712L3.1184 9.88174C3.18112 9.85704 3.24897 9.84721 3.31636 9.85306C3.38374 9.85891 3.44874 9.88028 3.50599 9.91539C3.59384 9.96948 3.68313 10.0204 3.77384 10.0683C3.83266 10.0993 3.88315 10.1434 3.92126 10.197C3.95937 10.2505 3.98401 10.3121 3.99322 10.3766L4.14215 11.4094L4.14536 11.4282C4.17801 11.5884 4.26639 11.7328 4.39559 11.8369C4.52479 11.9411 4.68692 11.9987 4.85464 12H7.14535C7.31516 11.9995 7.47932 11.9406 7.60893 11.8337C7.73853 11.7269 7.82526 11.5789 7.85383 11.4159L7.85624 11.4013L8.00544 10.3664C8.01473 10.302 8.03939 10.2405 8.07744 10.1869C8.11548 10.1334 8.16586 10.0893 8.22454 10.0581C8.31615 10.0101 8.40562 9.95922 8.4924 9.90626C8.54955 9.87136 8.61438 9.85016 8.68157 9.8444C8.74876 9.83864 8.81639 9.84849 8.87892 9.87313L9.87347 10.2631L9.88284 10.2668C10.0405 10.3245 10.2139 10.3265 10.3729 10.2724C10.5319 10.2183 10.6663 10.1117 10.7528 9.97096C10.7539 9.96899 10.7551 9.96707 10.7563 9.96522L11.9003 8.03765C11.9868 7.89525 12.0185 7.72751 11.9896 7.56447C11.9607 7.40142 11.8731 7.25373 11.7426 7.14783ZM8.14044 6.09809C8.12093 6.50206 7.98133 6.89182 7.73859 7.21995C7.49586 7.54809 7.16047 7.80047 6.77319 7.94641C6.38591 8.09234 5.96344 8.12554 5.55715 8.04197C5.15086 7.9584 4.77825 7.76166 4.48464 7.47567C4.19102 7.18968 3.98906 6.82677 3.9033 6.43107C3.81754 6.03536 3.85168 5.62391 4.00157 5.24676C4.15145 4.8696 4.41063 4.54298 4.74759 4.30662C5.08454 4.07026 5.48475 3.93434 5.89955 3.91539C6.19734 3.90262 6.49461 3.95034 6.77244 4.05552C7.05027 4.1607 7.30258 4.32103 7.51335 4.52631C7.72411 4.7316 7.8887 4.97736 7.99666 5.24795C8.10462 5.51855 8.15358 5.80806 8.14044 6.09809Z" fill="white"/>
</svg>
