<svg width="490" height="519" viewBox="0 0 490 519" fill="none" xmlns="http://www.w3.org/2000/svg">
<path opacity="0.1" d="M118.741 14.3013L114.889 8.99848L120.192 5.14643C120.859 4.66167 121.009 3.71532 120.524 3.048C120.04 2.38068 119.093 2.23071 118.426 2.71547L113.123 6.56755L109.271 1.26472C108.786 0.597401 107.84 0.447437 107.173 0.932192C106.505 1.41695 106.355 2.3633 106.84 3.03063L110.692 8.33342L105.389 12.1855C104.722 12.6703 104.572 13.6166 105.057 14.2839C105.542 14.9513 106.488 15.1012 107.155 14.6165L112.458 10.7644L116.31 16.0672C116.795 16.7345 117.741 16.8845 118.409 16.3997C119.086 15.9166 119.235 14.9806 118.741 14.3013Z" fill="white"/>
<path opacity="0.1" d="M473.881 70.5379L470.029 65.2351L475.331 61.383C475.999 60.8982 476.149 59.9519 475.664 59.2846C475.179 58.6172 474.233 58.4673 473.566 58.952L468.263 62.8041L464.411 57.5013C463.926 56.834 462.98 56.684 462.312 57.1688C461.645 57.6535 461.495 58.5999 461.98 59.2672L465.832 64.57L460.529 68.4221C459.862 68.9068 459.712 69.8532 460.196 70.5205C460.681 71.1878 461.628 71.3378 462.295 70.853L467.598 67.001L471.45 72.3038C471.935 72.9711 472.881 73.1211 473.548 72.6363C474.226 72.1532 474.374 71.2171 473.881 70.5379Z" fill="white"/>
<path opacity="0.1" d="M450.332 36.7277L448.35 33.9987L451.079 32.0163C451.422 31.7668 451.499 31.2798 451.25 30.9364C451 30.593 450.513 30.5158 450.17 30.7653L447.441 32.7477L445.458 30.0187C445.209 29.6752 444.722 29.5981 444.379 29.8475C444.035 30.097 443.958 30.584 444.207 30.9275L446.19 33.6564L443.461 35.6389C443.117 35.8883 443.04 36.3754 443.29 36.7188C443.539 37.0622 444.026 37.1394 444.37 36.8899L447.099 34.9075L449.081 37.6365C449.33 37.9799 449.817 38.0571 450.161 37.8076C450.51 37.559 450.586 37.0773 450.332 36.7277Z" fill="white"/>
<path opacity="0.1" d="M59.5304 64.7501H118.645V123.864H59.5304V64.7501Z" stroke="white" stroke-width="2" stroke-miterlimit="10"/>
<path opacity="0.1" d="M29.9733 35.1929H89.0874V94.3069H29.9733V35.1929Z" fill="white"/>
<path opacity="0.1" d="M489.866 453.295L414.035 518.469C396.036 497.527 398.422 465.96 419.364 447.961C440.306 429.962 471.867 432.353 489.866 453.295Z" fill="white"/>
</svg>
