<svg width="85" height="86" viewBox="0 0 85 86" fill="none" xmlns="http://www.w3.org/2000/svg">
<path d="M81.5632 7.29368C79.7709 7.29368 78.3105 5.8333 78.3105 4.04101C78.3105 2.24872 79.7709 0.78833 81.5632 0.78833C83.3555 0.78833 84.8159 2.24872 84.8159 4.04101C84.8159 5.84437 83.3555 7.29368 81.5632 7.29368ZM84.8159 23.5018C84.8159 21.7095 83.3555 20.2491 81.5632 20.2491C79.7709 20.2491 78.3105 21.7095 78.3105 23.5018C78.3105 25.2941 79.7709 26.7544 81.5632 26.7544C83.3555 26.7544 84.8159 25.3051 84.8159 23.5018ZM84.8159 42.9625C84.8159 41.1702 83.3555 39.7098 81.5632 39.7098C79.7709 39.7098 78.3105 41.1702 78.3105 42.9625C78.3105 44.7548 79.7709 46.2152 81.5632 46.2152C83.3555 46.2263 84.8159 44.7659 84.8159 42.9625ZM84.8159 62.4343C84.8159 60.6421 83.3555 59.1817 81.5632 59.1817C79.7709 59.1817 78.3105 60.6421 78.3105 62.4343C78.3105 64.2266 79.7709 65.687 81.5632 65.687C83.3555 65.687 84.8159 64.2266 84.8159 62.4343ZM84.8159 81.8951C84.8159 80.1028 83.3555 78.6424 81.5632 78.6424C79.7709 78.6424 78.3105 80.1028 78.3105 81.8951C78.3105 83.6874 79.7709 85.1478 81.5632 85.1478C83.3555 85.1478 84.8159 83.6874 84.8159 81.8951ZM65.3551 4.04101C65.3551 2.24872 63.8947 0.78833 62.1024 0.78833C60.3101 0.78833 58.8497 2.24872 58.8497 4.04101C58.8497 5.8333 60.3101 7.29368 62.1024 7.29368C63.8947 7.29368 65.3551 5.84437 65.3551 4.04101ZM65.3551 23.5018C65.3551 21.7095 63.8947 20.2491 62.1024 20.2491C60.3101 20.2491 58.8497 21.7095 58.8497 23.5018C58.8497 25.2941 60.3101 26.7544 62.1024 26.7544C63.8947 26.7544 65.3551 25.3051 65.3551 23.5018ZM65.3551 42.9625C65.3551 41.1702 63.8947 39.7098 62.1024 39.7098C60.3101 39.7098 58.8497 41.1702 58.8497 42.9625C58.8497 44.7548 60.3101 46.2152 62.1024 46.2152C63.8947 46.2263 65.3551 44.7659 65.3551 42.9625ZM65.3551 62.4343C65.3551 60.6421 63.8947 59.1817 62.1024 59.1817C60.3101 59.1817 58.8497 60.6421 58.8497 62.4343C58.8497 64.2266 60.3101 65.687 62.1024 65.687C63.8947 65.687 65.3551 64.2266 65.3551 62.4343ZM65.3551 81.8951C65.3551 80.1028 63.8947 78.6424 62.1024 78.6424C60.3101 78.6424 58.8497 80.1028 58.8497 81.8951C58.8497 83.6874 60.3101 85.1478 62.1024 85.1478C63.8947 85.1478 65.3551 83.6874 65.3551 81.8951ZM45.8833 4.04101C45.8833 2.24872 44.4229 0.78833 42.6306 0.78833C40.8383 0.78833 39.3779 2.24872 39.3779 4.04101C39.3779 5.8333 40.8383 7.29368 42.6306 7.29368C44.434 7.29368 45.8833 5.84437 45.8833 4.04101ZM45.8833 23.5018C45.8833 21.7095 44.4229 20.2491 42.6306 20.2491C40.8383 20.2491 39.3779 21.7095 39.3779 23.5018C39.3779 25.2941 40.8383 26.7544 42.6306 26.7544C44.434 26.7544 45.8833 25.3051 45.8833 23.5018ZM45.8833 42.9625C45.8833 41.1702 44.4229 39.7098 42.6306 39.7098C40.8383 39.7098 39.3779 41.1702 39.3779 42.9625C39.3779 44.7548 40.8383 46.2152 42.6306 46.2152C44.434 46.2263 45.8833 44.7659 45.8833 42.9625ZM45.8833 62.4343C45.8833 60.6421 44.4229 59.1817 42.6306 59.1817C40.8383 59.1817 39.3779 60.6421 39.3779 62.4343C39.3779 64.2266 40.8383 65.687 42.6306 65.687C44.434 65.687 45.8833 64.2266 45.8833 62.4343ZM45.8833 81.8951C45.8833 80.1028 44.4229 78.6424 42.6306 78.6424C40.8383 78.6424 39.3779 80.1028 39.3779 81.8951C39.3779 83.6874 40.8383 85.1478 42.6306 85.1478C44.434 85.1478 45.8833 83.6874 45.8833 81.8951ZM26.4225 4.04101C26.4225 2.24872 24.9621 0.78833 23.1698 0.78833C21.3775 0.78833 19.9172 2.24872 19.9172 4.04101C19.9172 5.8333 21.3775 7.29368 23.1698 7.29368C24.9732 7.29368 26.4225 5.84437 26.4225 4.04101ZM26.4225 23.5018C26.4225 21.7095 24.9621 20.2491 23.1698 20.2491C21.3775 20.2491 19.9172 21.7095 19.9172 23.5018C19.9172 25.2941 21.3775 26.7544 23.1698 26.7544C24.9732 26.7544 26.4225 25.3051 26.4225 23.5018ZM26.4225 42.9625C26.4225 41.1702 24.9621 39.7098 23.1698 39.7098C21.3775 39.7098 19.9172 41.1702 19.9172 42.9625C19.9172 44.7548 21.3775 46.2152 23.1698 46.2152C24.9732 46.2263 26.4225 44.7659 26.4225 42.9625ZM26.4225 62.4343C26.4225 60.6421 24.9621 59.1817 23.1698 59.1817C21.3775 59.1817 19.9172 60.6421 19.9172 62.4343C19.9172 64.2266 21.3775 65.687 23.1698 65.687C24.9732 65.687 26.4225 64.2266 26.4225 62.4343ZM26.4225 81.8951C26.4225 80.1028 24.9621 78.6424 23.1698 78.6424C21.3775 78.6424 19.9172 80.1028 19.9172 81.8951C19.9172 83.6874 21.3775 85.1478 23.1698 85.1478C24.9732 85.1478 26.4225 83.6874 26.4225 81.8951ZM6.96178 4.04101C6.96178 2.24872 5.5014 0.78833 3.7091 0.78833C1.91681 0.78833 0.456421 2.24872 0.456421 4.04101C0.456421 5.8333 1.91681 7.29368 3.7091 7.29368C5.5014 7.29368 6.96178 5.84437 6.96178 4.04101ZM6.96178 23.5018C6.96178 21.7095 5.5014 20.2491 3.7091 20.2491C1.91681 20.2491 0.456421 21.7095 0.456421 23.5018C0.456421 25.2941 1.91681 26.7544 3.7091 26.7544C5.5014 26.7544 6.96178 25.3051 6.96178 23.5018ZM6.96178 42.9625C6.96178 41.1702 5.5014 39.7098 3.7091 39.7098C1.91681 39.7098 0.456421 41.1702 0.456421 42.9625C0.456421 44.7548 1.91681 46.2152 3.7091 46.2152C5.5014 46.2152 6.96178 44.7659 6.96178 42.9625ZM6.96178 62.4343C6.96178 60.6421 5.5014 59.1817 3.7091 59.1817C1.91681 59.1817 0.456421 60.6421 0.456421 62.4343C0.456421 64.2266 1.91681 65.687 3.7091 65.687C5.5014 65.687 6.96178 64.2266 6.96178 62.4343ZM6.96178 81.8951C6.96178 80.1028 5.5014 78.6424 3.7091 78.6424C1.91681 78.6424 0.456421 80.1028 0.456421 81.8951C0.456421 83.6874 1.91681 85.1478 3.7091 85.1478C5.5014 85.1478 6.96178 83.6874 6.96178 81.8951Z" fill="white"/>
</svg>
