<svg width="28" height="150" viewBox="0 0 28 150" fill="none" xmlns="http://www.w3.org/2000/svg">
<path d="M5.21531 0.912598H0.760254V19.1591H5.21531V0.912598Z" fill="white"/>
<path d="M16.5332 0.912598H12.0781V19.1591H16.5332V0.912598Z" fill="white"/>
<path d="M27.8501 0.912598H23.395V19.1591H27.8501V0.912598Z" fill="white"/>
<path d="M5.21531 26.8991H0.760254V45.1456H5.21531V26.8991Z" fill="white"/>
<path d="M16.5332 26.8991H12.0781V45.1456H16.5332V26.8991Z" fill="white"/>
<path d="M16.5332 52.8773H12.0781V71.1238H16.5332V52.8773Z" fill="white"/>
<path d="M27.8501 52.8773H23.395V71.1238H27.8501V52.8773Z" fill="white"/>
<path d="M5.21531 78.8638H0.760254V97.1103H5.21531V78.8638Z" fill="white"/>
<path d="M27.8501 78.8638H23.395V97.1103H27.8501V78.8638Z" fill="white"/>
<path d="M5.21531 104.85H0.760254V123.097H5.21531V104.85Z" fill="white"/>
<path d="M16.5332 104.85H12.0781V123.097H16.5332V104.85Z" fill="white"/>
<path d="M5.21531 130.837H0.760254V149.083H5.21531V130.837Z" fill="white"/>
<path d="M16.5332 130.837H12.0781V149.083H16.5332V130.837Z" fill="white"/>
<path d="M27.8501 130.837H23.395V149.083H27.8501V130.837Z" fill="white"/>
</svg>
