<svg width="24" height="24" viewBox="0 0 24 24" fill="none" xmlns="http://www.w3.org/2000/svg">
<circle cx="12" cy="12" r="11.4" fill="#B9B9B9" stroke="white" stroke-width="1.2"/>
<path d="M17.7963 8.69231H15.75L15.2625 7.32033C15.2288 7.22645 15.1671 7.1453 15.0858 7.08797C15.0044 7.03063 14.9075 6.99991 14.8081 7H10.1919C9.98877 7 9.80671 7.12843 9.739 7.32033L9.25 8.69231H7.2037C6.53866 8.69231 6 9.23324 6 9.9011V16.7912C6 17.4591 6.53866 18 7.2037 18H17.7963C18.4613 18 19 17.4591 19 16.7912V9.9011C19 9.23324 18.4613 8.69231 17.7963 8.69231ZM17.9167 16.7912C17.9167 16.8577 17.8625 16.9121 17.7963 16.9121H7.2037C7.1375 16.9121 7.08333 16.8577 7.08333 16.7912V9.9011C7.08333 9.83462 7.1375 9.78022 7.2037 9.78022H10.0128L10.2701 9.05797L10.6147 8.08791H14.3838L14.7284 9.05797L14.9856 9.78022H17.7963C17.8625 9.78022 17.9167 9.83462 17.9167 9.9011V16.7912ZM12.5 10.7473C11.1699 10.7473 10.0926 11.8291 10.0926 13.1648C10.0926 14.5005 11.1699 15.5824 12.5 15.5824C13.8301 15.5824 14.9074 14.5005 14.9074 13.1648C14.9074 11.8291 13.8301 10.7473 12.5 10.7473ZM12.5 14.6154C11.7025 14.6154 11.0556 13.9657 11.0556 13.1648C11.0556 12.364 11.7025 11.7143 12.5 11.7143C13.2975 11.7143 13.9444 12.364 13.9444 13.1648C13.9444 13.9657 13.2975 14.6154 12.5 14.6154Z" fill="white"/>
</svg>
