<svg width="48" height="52" viewBox="0 0 48 52" fill="none" xmlns="http://www.w3.org/2000/svg">
<g clip-path="url(#clip0_136_8969)">
<path d="M34.0373 5.05955C33.1885 4.2765 32.4012 3.43191 31.5998 2.60986H9.63797C7.63069 2.60986 6 4.08699 6 5.91146V35.6709C6 37.496 7.63069 38.9731 9.63797 38.9731H32.843C34.8551 38.9731 36.4828 37.496 36.4828 35.6709V6.96933C35.6339 6.37397 34.8033 5.75668 34.0392 5.05528" fill="#D0D1D2"/>
<path d="M30.0155 0.283324H9.63919C7.63191 0.283324 6.00122 1.76106 6.00122 3.58492V33.3474C6.00122 35.1694 7.63191 36.6502 9.63919 36.6502H32.8442C34.8563 36.6502 36.484 35.1694 36.484 33.3474V7.47943C34.1355 5.25948 31.9655 2.88048 30.0185 0.282715" fill="#E7E6E6"/>
<path d="M10.5879 8.28142H31.2286C32.6168 8.28142 32.6168 6.32959 31.2286 6.32959H10.5879C9.20215 6.32959 9.20215 8.28142 10.5879 8.28142ZM10.5879 12.2424H31.2286C32.6168 12.2424 32.6168 10.2917 31.2286 10.2917H10.5879C9.20215 10.2917 9.20215 12.2424 10.5879 12.2424ZM10.5879 16.2935H31.2286C32.6168 16.2935 32.6168 14.3417 31.2286 14.3417H10.5879C9.20215 14.3417 9.20215 16.2935 10.5879 16.2935ZM10.5879 20.2556H31.2286C32.6168 20.2556 32.6168 18.3038 31.2286 18.3038H10.5879C9.20215 18.3038 9.20215 20.2556 10.5879 20.2556ZM10.5879 27.9021H20.088C21.4737 27.9021 21.4737 25.9496 20.088 25.9496H10.5879C9.20215 25.9496 9.20215 27.9021 10.5879 27.9021Z" fill="#35494D"/>
<path d="M36.8631 8.11446C34.9058 5.64771 32.9509 3.18401 30.9924 0.71726C30.8169 0.49301 30.3519 0.49301 30.174 0.71726C28.2124 3.18401 26.2618 5.64771 24.3033 8.11446C24.1223 8.34115 24.3532 8.63487 24.7134 8.63487H36.4536C36.8162 8.63487 37.0496 8.34115 36.8631 8.11446Z" fill="#D0D1D2"/>
<path d="M37.4193 7.49536C35.3755 5.04567 33.3359 2.59599 31.289 0.140205C31.105 -0.0822168 30.6211 -0.0822168 30.4353 0.140205C28.3865 2.58989 26.3494 5.04567 24.3049 7.49536C24.1154 7.72083 24.358 8.01272 24.7333 8.01272H36.9879C37.3651 8.01272 37.6082 7.72083 37.4138 7.49536" fill="#E7E6E6"/>
</g>
<g filter="url(#filter0_d_136_8969)">
<g clip-path="url(#clip1_136_8969)">
<path d="M39.0373 11.0596C38.1885 10.2765 37.4012 9.43191 36.5998 8.60986H14.638C12.6307 8.60986 11 10.087 11 11.9115V41.6709C11 43.496 12.6307 44.9731 14.638 44.9731H37.843C39.8551 44.9731 41.4828 43.496 41.4828 41.6709V12.9693C40.6339 12.374 39.8033 11.7567 39.0392 11.0553" fill="#D0D1D2"/>
<path d="M35.0155 6.28332H14.6392C12.6319 6.28332 11.0012 7.76106 11.0012 9.58492V39.3474C11.0012 41.1694 12.6319 42.6502 14.6392 42.6502H37.8442C39.8563 42.6502 41.484 41.1694 41.484 39.3474V13.4794C39.1355 11.2595 36.9655 8.88048 35.0185 6.28271" fill="#E7E6E6"/>
<path d="M15.5879 14.2814H36.2286C37.6168 14.2814 37.6168 12.3296 36.2286 12.3296H15.5879C14.2022 12.3296 14.2022 14.2814 15.5879 14.2814ZM15.5879 18.2424H36.2286C37.6168 18.2424 37.6168 16.2917 36.2286 16.2917H15.5879C14.2022 16.2917 14.2022 18.2424 15.5879 18.2424ZM15.5879 22.2935H36.2286C37.6168 22.2935 37.6168 20.3417 36.2286 20.3417H15.5879C14.2022 20.3417 14.2022 22.2935 15.5879 22.2935ZM15.5879 26.2556H36.2286C37.6168 26.2556 37.6168 24.3038 36.2286 24.3038H15.5879C14.2022 24.3038 14.2022 26.2556 15.5879 26.2556ZM15.5879 33.9021H25.088C26.4737 33.9021 26.4737 31.9496 25.088 31.9496H15.5879C14.2022 31.9496 14.2022 33.9021 15.5879 33.9021Z" fill="#35494D"/>
<path d="M41.8631 14.1145C39.9058 11.6477 37.9509 9.18401 35.9924 6.71726C35.8169 6.49301 35.3519 6.49301 35.174 6.71726C33.2124 9.18401 31.2618 11.6477 29.3033 14.1145C29.1223 14.3411 29.3532 14.6349 29.7134 14.6349H41.4536C41.8162 14.6349 42.0496 14.3411 41.8631 14.1145Z" fill="#D0D1D2"/>
<path d="M42.4193 13.4954C40.3755 11.0457 38.3359 8.59599 36.289 6.14021C36.105 5.91778 35.6211 5.91778 35.4353 6.14021C33.3865 8.58989 31.3494 11.0457 29.3049 13.4954C29.1154 13.7208 29.358 14.0127 29.7333 14.0127H41.9879C42.3651 14.0127 42.6082 13.7208 42.4138 13.4954" fill="#E7E6E6"/>
</g>
</g>
<defs>
<filter id="filter0_d_136_8969" x="1" y="5" width="47" height="47" filterUnits="userSpaceOnUse" color-interpolation-filters="sRGB">
<feFlood flood-opacity="0" result="BackgroundImageFix"/>
<feColorMatrix in="SourceAlpha" type="matrix" values="0 0 0 0 0 0 0 0 0 0 0 0 0 0 0 0 0 0 127 0" result="hardAlpha"/>
<feOffset dy="3"/>
<feGaussianBlur stdDeviation="2"/>
<feColorMatrix type="matrix" values="0 0 0 0 0.458824 0 0 0 0 0.0745098 0 0 0 0 0.94902 0 0 0 0.25 0"/>
<feBlend mode="normal" in2="BackgroundImageFix" result="effect1_dropShadow_136_8969"/>
<feBlend mode="normal" in="SourceGraphic" in2="effect1_dropShadow_136_8969" result="shape"/>
</filter>
<clipPath id="clip0_136_8969">
<rect width="39" height="39" fill="white"/>
</clipPath>
<clipPath id="clip1_136_8969">
<rect width="39" height="39" fill="white" transform="translate(5 6)"/>
</clipPath>
</defs>
</svg>
