<svg width="37" height="35" viewBox="0 0 37 35" fill="none" xmlns="http://www.w3.org/2000/svg">
<path d="M31.9532 0H19.4563L16.6345 5.64375H0.912598V28.2188H34.7751V0H31.9532ZM31.9532 5.64375H20.9345L22.4126 2.82187H31.9532V5.64375Z" fill="#BF8E55"/>
<path d="M31.6844 15.2931C32.4734 15.83 33.1858 16.4714 33.8022 17.1999C34.8134 18.31 35.3927 19.7461 35.4346 21.2472C35.4765 22.7483 34.9783 24.2145 34.0306 25.3793C32.9448 26.6548 31.436 27.4968 29.7803 27.751C28.2726 27.9954 26.7329 27.9622 25.2371 27.6529C24.5237 27.5211 23.8015 27.4421 23.0764 27.4164C22.761 27.3592 22.4358 27.4296 22.1722 27.612C21.9087 27.7944 21.7283 28.074 21.6708 28.3893V28.4095C21.6391 28.5833 21.6443 28.7619 21.6859 28.9337C21.7276 29.1054 21.8049 29.2665 21.9127 29.4065C22.259 29.9276 22.6397 30.425 23.0522 30.8954C23.4014 31.269 23.6466 31.7277 23.763 32.2257C23.8325 32.4817 23.8033 32.7545 23.6811 32.99C23.5589 33.2255 23.3526 33.4064 23.1032 33.4969C21.7828 34.0975 20.3314 34.3528 18.8852 34.2386C15.1695 34.0763 11.5714 32.8879 8.48996 30.8054C7.47235 30.1278 6.6002 29.2539 5.9246 28.2349C5.249 27.216 4.78353 26.0725 4.55546 24.8714C4.3514 23.8158 4.36533 22.7296 4.59642 21.6795C4.8275 20.6295 5.27084 19.6378 5.89921 18.7654C7.34091 16.6407 9.35111 14.9644 11.7002 13.9279C14.1283 12.755 16.7665 12.0794 19.4595 11.941C22.1526 11.8025 24.8461 12.2039 27.3817 13.1216C27.4355 13.1485 31.589 15.3751 31.6844 15.2931Z" fill="#A86749"/>
<path d="M10.1133 23.0803C10.886 23.0535 11.6437 23.2978 12.2552 23.771C12.5804 23.9912 12.8072 24.3293 12.8877 24.7137C12.9682 25.0981 12.8961 25.4988 12.6865 25.831C12.5756 26.0068 12.4286 26.157 12.2552 26.2717C11.6274 26.7156 10.8774 26.954 10.1086 26.954C9.33969 26.954 8.58972 26.7156 7.96192 26.2717C7.63483 26.0526 7.4057 25.715 7.32296 25.3301C7.24021 24.9452 7.31032 24.5432 7.51849 24.209C7.63336 24.0241 7.78807 23.8671 7.97133 23.7495C8.58539 23.2834 9.34309 23.0467 10.1133 23.0803Z" fill="#3783FF"/>
<path d="M9.73425 21.4074C9.16935 21.4176 8.61666 21.2425 8.16072 20.9088C7.8952 20.7422 7.70476 20.479 7.62956 20.1746C7.55435 19.8703 7.60026 19.5487 7.75759 19.2775C7.85273 19.1134 7.9865 18.975 8.14728 18.8744C8.63255 18.5348 9.21187 18.3555 9.80414 18.3615C10.3964 18.3675 10.972 18.5586 11.4502 18.908C11.7041 19.0853 11.879 19.3544 11.9379 19.6583C11.9969 19.9623 11.9352 20.2773 11.766 20.5366C11.6859 20.6599 11.5828 20.7667 11.4623 20.8511C10.9711 21.2367 10.3582 21.434 9.73425 21.4074Z" fill="#4DE94C"/>
<path d="M13.9605 17.4553C13.6979 17.4699 13.4352 17.4316 13.1878 17.3427C12.9403 17.2538 12.7132 17.1162 12.52 16.938C12.3291 16.7735 12.21 16.5409 12.1882 16.2899C12.1664 16.0388 12.2435 15.7892 12.4031 15.5942C12.4386 15.5511 12.4777 15.5111 12.52 15.4746C12.9202 15.1401 13.4253 14.9568 13.947 14.9568C14.4687 14.9568 14.9738 15.1401 15.3741 15.4746C15.5643 15.6395 15.683 15.872 15.7048 16.1228C15.7266 16.3736 15.6499 16.6231 15.491 16.8184C15.4411 16.8808 15.3833 16.9363 15.319 16.9837C14.9401 17.3035 14.456 17.4715 13.9605 17.4553Z" fill="#FFEE00"/>
<path d="M16.3105 26.7569C17.1776 26.7259 18.0288 26.9955 18.7198 27.5201C19.0795 27.7572 19.333 28.1249 19.4265 28.5454C19.52 28.9659 19.4464 29.4064 19.2211 29.7736C19.0942 29.9798 18.9229 30.1551 18.7198 30.2869C18.0095 30.7796 17.1656 31.0437 16.3011 31.0437C15.4366 31.0437 14.5927 30.7796 13.8823 30.2869C13.5193 30.0527 13.2616 29.6864 13.1638 29.2656C13.066 28.8448 13.1357 28.4024 13.3583 28.0321C13.4926 27.8131 13.6768 27.6289 13.8958 27.4946C14.5917 26.9779 15.4447 26.7173 16.3105 26.7569Z" fill="#4C1AC6"/>
<path d="M36.6563 10.7043C36.3121 11.6516 35.7868 12.5229 35.1096 13.2695C33.5401 15.1966 31.8579 17.0291 30.0719 18.7574C29.9903 18.8664 29.8781 18.9487 29.7497 18.9939C29.6212 19.0391 29.4822 19.0452 29.3503 19.0114C29.2242 18.9684 29.1091 18.8982 29.0131 18.8058C28.6287 18.4394 28.2507 18.0663 27.8789 17.6864C27.7515 17.582 27.6696 17.432 27.6505 17.2683C27.6315 17.1046 27.6767 16.9399 27.7768 16.809C27.7983 16.7818 27.8216 16.7563 27.8467 16.7324C27.8704 16.7076 27.8955 16.6843 27.9219 16.6625C29.6621 14.9015 31.5016 13.2415 33.4313 11.6906C34.0231 11.2039 34.6623 10.778 35.3394 10.4194C35.5574 10.3109 35.7862 10.2258 36.022 10.1655C36.0794 10.1411 36.141 10.1283 36.2033 10.1277C36.2656 10.1271 36.3274 10.1389 36.3852 10.1622C36.443 10.1855 36.4956 10.22 36.54 10.2637C36.5845 10.3074 36.6199 10.3594 36.6442 10.4167V10.4356L36.6563 10.7043Z" fill="#2A3E4F"/>
<path d="M21.875 23.466C21.8888 23.466 21.9025 23.4688 21.9153 23.474C22.5422 23.8803 23.2968 24.0412 24.0349 23.926C24.7729 23.8107 25.4426 23.4273 25.9157 22.8492C26.1192 22.6338 26.274 22.3771 26.3693 22.0965C26.4646 21.8159 26.4983 21.518 26.4679 21.2232C26.4229 20.8818 26.267 20.5647 26.0243 20.3205C25.7815 20.0763 25.4653 19.9185 25.1242 19.8714C24.8877 19.8481 24.6492 19.8863 24.4319 19.9823C24.2146 20.0784 24.0258 20.2291 23.8839 20.4197C23.6894 20.68 23.5587 20.9824 23.5023 21.3025C23.3865 21.748 23.1829 22.1658 22.9034 22.5315C22.624 22.8973 22.2744 23.2035 21.875 23.4324V23.466Z" fill="#7E8C8D"/>
<path d="M28.8086 19.2049C28.3719 18.7655 27.9285 18.3301 27.4864 17.8934C27.462 17.8595 27.4311 17.8308 27.3956 17.8089C27.3601 17.787 27.3206 17.7723 27.2794 17.7657C27.2382 17.7591 27.1961 17.7607 27.1555 17.7704C27.115 17.7801 27.0767 17.7976 27.0429 17.8221H27.0349C27.0005 17.8484 26.9717 17.8813 26.9502 17.9189C26.5766 18.4062 26.2049 18.8954 25.8349 19.3863C25.785 19.4422 25.7584 19.5151 25.7604 19.59C25.7624 19.6649 25.7929 19.7362 25.8456 19.7894L25.8604 19.8028C26.191 20.1307 26.5215 20.4568 26.8521 20.7811C26.8768 20.8122 26.9074 20.8381 26.9422 20.8573C26.9769 20.8765 27.0152 20.8886 27.0546 20.893C27.0941 20.8974 27.134 20.8939 27.1722 20.8827C27.2103 20.8716 27.2458 20.853 27.2767 20.8281C27.7806 20.4559 28.2859 20.0837 28.7817 19.7007C28.8559 19.6209 28.9175 19.5303 28.9645 19.432C28.9191 19.352 28.8669 19.276 28.8086 19.2049Z" fill="#F89B36"/>
<path d="M19.0062 15.6157C18.7944 15.6272 18.5826 15.5949 18.384 15.5207C18.1853 15.4464 18.0042 15.3319 17.8519 15.1844C17.6942 15.0384 17.5993 14.8369 17.5872 14.6223C17.5752 14.4077 17.647 14.1968 17.7874 14.0341C17.8075 14.0104 17.8291 13.988 17.8519 13.9669C18.1675 13.689 18.5736 13.5356 18.9941 13.5356C19.4146 13.5356 19.8207 13.689 20.1363 13.9669C20.2944 14.113 20.3896 14.3148 20.4016 14.5297C20.4136 14.7446 20.3416 14.9558 20.2008 15.1185C20.1683 15.1564 20.1323 15.191 20.0933 15.222C19.7943 15.4869 19.4055 15.6277 19.0062 15.6157Z" fill="#FF8C00"/>
<path d="M21.875 23.4658C21.875 23.4658 27.1358 21.9393 25.448 19.9533C25.448 19.9533 24.2964 19.4252 23.4929 21.3064C23.1502 22.1545 22.5926 22.8987 21.875 23.4658Z" fill="#8F9FA0"/>
<path d="M26.3175 20.2706L28.1625 18.5613L27.4906 17.8894C27.465 17.8557 27.433 17.8274 27.3964 17.8061C27.3598 17.7848 27.3194 17.7709 27.2774 17.7653C27.2354 17.7597 27.1928 17.7624 27.1519 17.7733C27.111 17.7843 27.0727 17.8032 27.0391 17.829L27.0283 17.837C26.9992 17.861 26.9742 17.8896 26.9544 17.9217C26.6857 18.2697 25.4064 19.3595 25.8633 19.8123L26.3175 20.2706Z" fill="#E9BB42"/>
<path d="M28.4298 18.2388L36.6562 10.4195C36.6562 10.4195 36.7113 9.89141 36.0274 10.1508C35.3434 10.4101 34.9524 9.91291 27.8386 16.7351C27.7659 16.7929 27.7077 16.8668 27.6688 16.9511C27.6299 17.0353 27.6112 17.1275 27.6144 17.2203C27.6175 17.313 27.6423 17.4038 27.6869 17.4852C27.7314 17.5666 27.7944 17.6365 27.8708 17.6892L28.4298 18.2388Z" fill="#32495D"/>
<path d="M24.1876 16.0041C23.9761 16.0152 23.7646 15.9826 23.5663 15.9083C23.368 15.8341 23.187 15.7199 23.0347 15.5728C22.8765 15.4268 22.7814 15.225 22.7694 15.0101C22.7573 14.7952 22.8293 14.584 22.9702 14.4212C22.9903 14.398 23.0118 14.376 23.0347 14.3554C23.3503 14.0774 23.7563 13.9241 24.1769 13.9241C24.5974 13.9241 25.0035 14.0774 25.3191 14.3554C25.4764 14.5013 25.571 14.7025 25.5831 14.9168C25.5951 15.1311 25.5236 15.3417 25.3836 15.5043C25.3505 15.5429 25.3136 15.578 25.2734 15.6091C24.9753 15.8749 24.5868 16.0163 24.1876 16.0041Z" fill="#F60000"/>
</svg>
