<svg width="22" height="22" viewBox="0 0 22 22" fill="none" xmlns="http://www.w3.org/2000/svg">
<path d="M21.3846 11.2411C21.3846 8.76537 21.3846 6.28968 21.3846 3.81398C21.3846 1.70506 20.5595 0.833984 18.4963 0.833984C13.5449 0.833984 8.5936 0.833984 3.59637 0.833984C1.57914 0.833984 0.753906 1.70506 0.753906 3.72229C0.753906 8.67368 0.753906 13.6709 0.753906 18.6223C0.753906 20.5478 1.57914 21.4189 3.50468 21.4648C8.54775 21.4648 13.5908 21.4648 18.6339 21.4648C20.5136 21.4648 21.3846 20.5478 21.3846 18.714C21.3846 16.1924 21.3846 13.7168 21.3846 11.2411ZM5.88868 18.6223C3.55052 18.7598 3.55052 18.8057 3.55052 16.4217C3.55052 14.3128 3.59637 12.158 3.55052 10.0491C3.55052 9.26968 3.8256 8.9946 4.60498 8.9946C6.75975 8.94875 6.75975 8.94875 6.75975 11.0118C6.75975 11.9746 6.75975 12.8915 6.75975 13.8543C6.75975 15.0921 6.75975 16.3758 6.75975 17.6137C6.8056 18.3014 6.62222 18.6223 5.88868 18.6223ZM5.24683 7.2066C4.19237 7.2066 3.27545 6.33552 3.27545 5.28106C3.27545 4.2266 4.10068 3.40137 5.15514 3.40137C6.2096 3.35552 7.17237 4.27245 7.17237 5.32691C7.12652 6.28968 6.25545 7.16075 5.24683 7.2066ZM18.5422 17.7512C18.5422 18.3931 18.2671 18.6223 17.6711 18.6223C15.2871 18.7598 15.2871 18.8057 15.2871 16.3758C15.2871 15.2755 15.3329 14.1752 15.2871 13.0749C15.2412 12.0204 14.5994 11.3328 13.6825 11.3786C12.6739 11.4703 12.2154 12.0663 12.1696 13.0749C12.1696 14.542 12.1237 15.9632 12.1696 17.4303C12.2154 18.2555 11.9862 18.6681 11.0234 18.6681C8.54775 18.6223 8.96037 18.7598 8.91452 16.5592C8.91452 15.6423 8.91452 14.7254 8.91452 13.8084C8.91452 12.5248 8.91452 11.1952 8.91452 9.91152C8.91452 9.31552 9.14375 8.90291 9.7856 9.04045C10.6108 9.22383 11.7111 8.44445 12.2612 9.72814C12.3529 9.91152 12.628 9.63645 12.8114 9.49891C15.3329 7.94014 18.313 9.40722 18.4963 12.3872C18.6339 14.1752 18.5422 15.9632 18.5422 17.7512Z" fill="white"/>
</svg>
