<svg width="20" height="17" viewBox="0 0 20 17" fill="none" xmlns="http://www.w3.org/2000/svg">
<path d="M16.9231 16.2252C16.9231 16.4307 16.842 16.6278 16.6978 16.7731C16.5535 16.9184 16.3579 17 16.1538 17H1.53846C1.13044 17 0.739122 16.8367 0.450605 16.5462C0.162087 16.2556 0 15.8614 0 15.4505V3.82912C0 3.62364 0.0810437 3.42658 0.225302 3.28128C0.369561 3.13599 0.565218 3.05436 0.769231 3.05436C0.973243 3.05436 1.1689 3.13599 1.31316 3.28128C1.45742 3.42658 1.53846 3.62364 1.53846 3.82912V15.4505H16.1538C16.3579 15.4505 16.5535 15.5321 16.6978 15.6774C16.842 15.8227 16.9231 16.0198 16.9231 16.2252ZM19.8269 5.87254C19.8369 5.86173 19.8435 5.8483 19.8462 5.8338L19.8654 5.80475L19.8942 5.7757L19.9135 5.74665C19.9135 5.72728 19.9231 5.71759 19.9231 5.70791L19.9423 5.67885C19.9423 5.65948 19.9519 5.6498 19.9519 5.64012L19.9712 5.60138C19.9709 5.58784 19.9743 5.57448 19.9808 5.56264V5.53359C19.9885 5.51872 19.9919 5.5019 19.9904 5.48516C19.9899 5.47992 19.9906 5.47463 19.9922 5.46964C19.9939 5.46464 19.9965 5.46004 20 5.45611V5.30116C19.9965 5.29723 19.9939 5.29263 19.9922 5.28763C19.9906 5.28263 19.9899 5.27735 19.9904 5.27211C19.9919 5.25537 19.9885 5.23855 19.9808 5.22368V5.19463C19.9743 5.18279 19.9709 5.16943 19.9712 5.15589L19.9519 5.11715C19.9519 5.10747 19.9423 5.09779 19.9423 5.07842L19.9231 5.04936C19.9231 5.03968 19.9135 5.02999 19.9135 5.01062L19.8942 4.98157L19.8654 4.95252L19.8462 4.92347C19.8435 4.90897 19.8369 4.89554 19.8269 4.88473C19.8173 4.87504 19.7981 4.86536 19.7885 4.84599C19.7829 4.84102 19.7795 4.83408 19.7788 4.82662L15.1635 0.178074C15.014 0.0545287 14.8243 -0.00860774 14.6311 0.000945087C14.438 0.0104979 14.2553 0.092057 14.1186 0.229758C13.9819 0.36746 13.9009 0.551458 13.8914 0.745962C13.882 0.940467 13.9446 1.13157 14.0673 1.2821L17.375 4.60388H13.8462C11.6287 4.60216 9.47377 5.34351 7.72073 6.71113C5.96769 8.07875 4.71622 9.99492 4.16346 12.1578C4.11363 12.3555 4.14324 12.565 4.24585 12.7409C4.34846 12.9168 4.51579 13.0448 4.71154 13.0972L4.90385 13.1262C5.07486 13.1257 5.24095 13.0686 5.3765 12.9635C5.51205 12.8585 5.60951 12.7115 5.65385 12.5451C6.1213 10.715 7.18006 9.09361 8.66331 7.93637C10.1465 6.77912 11.9699 6.15185 13.8462 6.15339H17.375L14.0673 9.47517C13.9229 9.62206 13.8418 9.82044 13.8418 10.0272C13.8418 10.2339 13.9229 10.4323 14.0673 10.5792C14.2143 10.7224 14.4109 10.8024 14.6154 10.8024C14.8199 10.8024 15.0164 10.7224 15.1635 10.5792L19.7788 5.93065C19.7795 5.92319 19.7829 5.91625 19.7885 5.91128C19.7981 5.89191 19.8173 5.88223 19.8269 5.87254V5.87254Z" fill="black"/>
</svg>
