<svg width="23" height="20" viewBox="0 0 23 20" fill="none" xmlns="http://www.w3.org/2000/svg">
<path d="M0 17.6266C2.29231 17.535 4.49292 17.1223 6.51016 15.5177C5.04308 15.2426 3.89692 14.7842 3.02585 13.7756C1.97139 12.5377 2.01723 12.3543 3.62185 11.9417C2.61323 11.2999 1.60462 10.7497 1.05446 9.74109C0.916918 9.46602 0.733538 9.19094 0.641848 8.91586C0.458458 8.4574 0.137538 7.90725 0.366768 7.49463C0.687688 6.99033 1.14616 7.63217 1.60462 7.58633C1.69631 7.58633 1.83385 7.54048 2.01723 7.49463C1.46708 6.6694 0.779388 5.98171 0.550158 5.06479C0.275078 4.14786 0.275078 3.23094 0.504308 2.26817C0.733538 1.44294 0.962768 1.25956 1.65046 1.9931C3.85108 4.23956 6.51016 5.66079 9.62765 6.1651C10.5904 6.30263 11.0489 6.25679 11.0489 5.01894C11.0489 1.35125 15.175 -1.03275 18.2926 0.984478C19.5763 1.80971 20.4932 1.62633 21.6393 1.16786C21.8686 1.07617 22.0978 0.846938 22.4187 1.03033C22.1895 1.9014 21.456 2.45156 20.8141 3.13925C21.5476 3.32263 22.1436 2.86417 22.8313 2.91002C22.7855 3.36848 22.4646 3.6894 22.1895 3.87279C20.9975 4.65217 20.8141 5.79833 20.7224 7.12786C19.8513 16.8931 9.39845 22.6697 0.595998 18.2226C0.412618 18.131 0.137538 18.0851 0 17.6266Z" fill="white"/>
</svg>
