<svg width="24" height="17" viewBox="0 0 24 17" fill="none" xmlns="http://www.w3.org/2000/svg">
<path d="M22.8961 3.69715C22.621 1.90915 21.8875 1.22146 20.1453 1.03807C14.5063 0.396229 8.86722 0.579613 3.22815 1.08392C1.94446 1.22146 1.11922 2.04669 0.844145 3.37623C0.156453 6.76884 0.339838 10.2073 0.844145 13.5999C1.07338 15.2962 1.85276 15.9839 3.50322 16.2131C6.20815 16.6257 9.00476 16.5341 11.9389 16.6716C14.5521 16.4424 17.3487 16.5799 20.1912 16.2131C21.7499 15.9839 22.5752 15.2962 22.8961 13.6916C23.5838 10.3907 23.4004 7.04392 22.8961 3.69715ZM14.8272 9.0153C13.2684 9.88638 11.7555 10.8033 10.1967 11.6744C9.78415 11.9036 9.55492 11.9036 9.55492 11.3534C9.55492 9.38207 9.55492 7.41069 9.55492 5.16423C11.4804 6.26453 13.1309 7.2273 14.8272 8.19007C15.2856 8.51099 15.3315 8.74023 14.8272 9.0153Z" fill="white"/>
</svg>
